<svg width="225" height="29" viewBox="0 0 225 29" fill="none" xmlns="http://www.w3.org/2000/svg"><g clip-path="url(#clip0_402_45773)" fill="#E14226"><path d="M28.73 5.316a7.925 7.925 0 00-3.301.642 7.812 7.812 0 00-2.721 1.949c-1.589 1.715-2.39 3.98-2.39 6.749 0 2.706.83 4.9 2.467 6.513 1.636 1.614 3.776 2.443 6.357 2.443a9.755 9.755 0 004.537-1.002c1.28-.666 2.162-1.354 2.629-2.045v-.022l-2.04-3.767v-.021h-.276v.021a5.608 5.608 0 01-1.982 1.871 5.445 5.445 0 01-2.857.822 4.037 4.037 0 01-2.82-1.064 3.506 3.506 0 01-.863-1.189c-.2-.451-.3-.939-.295-1.431h12.008l.033-1.296c0-2.7-.816-4.928-2.423-6.626a7.96 7.96 0 00-2.75-1.92 8.072 8.072 0 00-3.313-.627zm3.75 7.237h-7.243a4.68 4.68 0 011.151-2.128 3.163 3.163 0 011.122-.766c.426-.171.885-.25 1.345-.229.472-.016.943.067 1.38.244.437.177.83.445 1.153.784a3.83 3.83 0 011.092 2.095zm19.24-5.066a4.869 4.869 0 00-1.977-1.578 6.372 6.372 0 00-2.7-.597 7.455 7.455 0 00-3.25.647 7.34 7.34 0 00-2.632 1.988c-1.47 1.747-2.228 3.98-2.228 6.61 0 2.632.717 4.832 2.133 6.514 1.415 1.683 3.393 2.534 5.882 2.534a6.76 6.76 0 003.221-.724 5.345 5.345 0 002.096-1.943h.033l.434 2.269v.04h3.54V.014h-4.551v7.472zm-1.018 3.42a5.642 5.642 0 011.177 3.65 5.23 5.23 0 01-1.191 3.54 3.933 3.933 0 01-1.408 1.042 3.994 3.994 0 01-1.729.333 3.63 3.63 0 01-1.696-.33 3.572 3.572 0 01-1.34-1.074 5.668 5.668 0 01-1.067-3.51 6.056 6.056 0 011.103-3.532 3.45 3.45 0 011.293-1.172 3.516 3.516 0 011.711-.398 3.89 3.89 0 011.748.35c.547.25 1.026.624 1.4 1.09v.01zm17.542-5.591a6.76 6.76 0 00-3.382.785 5.001 5.001 0 00-1.968 1.896h-.029l-.283-2.308h-3.699v23.326h4.526v-7.72h.059a5.08 5.08 0 001.967 1.651c.858.435 1.81.661 2.776.659a6.783 6.783 0 003.067-.614 6.674 6.674 0 002.448-1.92c1.353-1.686 2.04-3.875 2.04-6.513s-.702-4.864-2.088-6.608a6.594 6.594 0 00-2.393-1.965 6.706 6.706 0 00-3.04-.67zm2.997 9.245a5.562 5.562 0 01-1.103 3.529 3.445 3.445 0 01-1.254 1.034 3.507 3.507 0 01-1.596.352 3.697 3.697 0 01-1.626-.318 3.64 3.64 0 01-1.315-.992c-.736-.872-1.103-2.085-1.103-3.619 0-1.534.367-2.819 1.084-3.73.344-.443.79-.798 1.302-1.037a3.607 3.607 0 011.64-.335 3.408 3.408 0 011.633.375c.503.259.932.639 1.246 1.105a6.058 6.058 0 011.092 3.622v.014zM89.97 7.075C88.617 5.898 86.852 5.3 84.727 5.3a9.418 9.418 0 00-4.217.948 8.394 8.394 0 00-3.148 2.686v.025l2.207 3.618v.022h.286v-.025a6.507 6.507 0 012.081-2.392 4.798 4.798 0 012.74-.88 3.642 3.642 0 012.07.49 1.495 1.495 0 01.69 1.269c0 .463-.279.81-.856 1.064a25.96 25.96 0 01-3.93 1.039c-1.979.412-3.416 1.085-4.276 2.019a4.987 4.987 0 00-1.298 3.528c0 1.524.474 2.732 1.415 3.619.941.886 2.339 1.306 4.17 1.306 2.437 0 4.187-.9 5.206-2.681h.033l.456 2.309h3.64V12.083c.018-2.146-.67-3.829-2.026-5.008zm-3.677 11.71a4.856 4.856 0 01-2.842.832c-1.243 0-1.838-.434-1.838-1.325a1.371 1.371 0 01.522-1.085 4.741 4.741 0 011.9-.753c2.03-.449 3.159-.908 3.442-1.408v1.81c.007.723-.386 1.382-1.169 1.928h-.015zm17.494-13.469a6.563 6.563 0 00-3.029.706 5.69 5.69 0 00-2.206 1.975h-.03L98.24 5.69h-3.688v17.557h4.53v-8.883a5.682 5.682 0 011.052-3.543 3.484 3.484 0 011.307-1.047 3.552 3.552 0 011.652-.325c1.967 0 2.964 1.14 2.964 3.387v10.4h4.53V11.428a5.92 5.92 0 00-.42-2.378 5.983 5.983 0 00-1.338-2.022c-1.166-1.148-2.86-1.712-5.041-1.712zm21.7 2.171a4.865 4.865 0 00-1.978-1.578 6.38 6.38 0 00-2.713-.593 7.452 7.452 0 00-3.251.647 7.339 7.339 0 00-2.632 1.987c-1.471 1.748-2.228 3.98-2.228 6.612 0 2.63.717 4.83 2.132 6.513 1.416 1.683 3.394 2.533 5.883 2.533a6.757 6.757 0 003.221-.724 5.372 5.372 0 002.096-1.943h.033l.434 2.27v.039h3.537V.018h-4.534v7.469zm-1.014 3.409a5.627 5.627 0 011.18 3.651 5.22 5.22 0 01-1.195 3.54 3.925 3.925 0 01-1.406 1.041 3.982 3.982 0 01-1.727.333 3.634 3.634 0 01-1.696-.33 3.58 3.58 0 01-1.341-1.074 5.649 5.649 0 01-1.066-3.51 6.055 6.055 0 011.103-3.532 3.453 3.453 0 011.293-1.172 3.515 3.515 0 011.711-.398 3.886 3.886 0 011.748.355 3.828 3.828 0 011.396 1.096zm20.483-3.822c-1.353-1.176-3.118-1.773-5.243-1.773a9.417 9.417 0 00-4.21.948 8.398 8.398 0 00-3.148 2.685v.026l2.207 3.618v.022h.283v-.025a6.506 6.506 0 012.081-2.392 4.785 4.785 0 012.739-.88 3.642 3.642 0 012.07.49c.214.137.39.325.511.547.121.222.183.47.18.722 0 .463-.279.81-.857 1.064a25.96 25.96 0 01-3.93 1.039c-1.978.412-3.416 1.085-4.276 2.019a4.989 4.989 0 00-1.302 3.528c0 1.524.478 2.732 1.42 3.619.941.886 2.338 1.306 4.169 1.306 2.438 0 4.188-.9 5.206-2.681h.033l.456 2.308h3.64V12.083c.015-2.146-.673-3.829-2.029-5.009zm-3.677 11.71a4.856 4.856 0 01-2.842.833c-1.243 0-1.839-.434-1.839-1.325a1.395 1.395 0 01.519-1.085 4.782 4.782 0 011.904-.753c2.03-.449 3.159-.908 3.442-1.408v1.81c.026.723-.39 1.382-1.169 1.928h-.015zM15.023 16.31a20.267 20.267 0 01-.926-1.89 8.168 8.168 0 002.698-1.87c1.19-1.149 1.784-2.77 1.784-4.864 0-2.425-.807-4.309-2.42-5.652A8.778 8.778 0 0010.346.018H0v23.16h5.037v-8.316h1.916l1.169-.03c.437 1.04 1.4 3.323 1.967 4.539l4.934-3.062zM5.037 4.645h4.637c2.326 0 3.49.925 3.492 2.776 0 1.988-1.299 2.98-3.897 2.978H5.037V4.646zM20.23 21.52l-1.32-.919-5.46 3.481 1.911.731 3.332-.007 2.415-1.694-.879-1.592zm-4.369-3.868L10.8 20.789l1.423 2.193 5.386-3.34-1.747-1.99z"/></g><path d="M161.52 3.4V23h4.648c6.636 0 9.66-3.052 9.66-9.884 0-6.776-2.604-9.716-9.464-9.716h-4.844zm1.68 1.54h3.248c6.076 0 7.7 2.716 7.7 8.176 0 5.18-1.932 8.344-7.868 8.344h-3.08V4.94zm22.659 2.044c-4.312 0-7.084 3.836-7.084 8.4 0 4.62 2.576 7.952 7.112 7.952s7.028-3.304 7.028-7.952c0-4.592-2.744-8.4-7.056-8.4zm0 1.4c3.584 0 5.516 3.22 5.516 7 0 3.696-1.932 6.468-5.488 6.468-3.556 0-5.572-2.8-5.572-6.468 0-3.752 1.96-7 5.544-7zm16.953-1.4c-4.312 0-7.084 3.752-7.084 8.4 0 4.62 2.576 7.952 7.112 7.952 3.444 0 5.656-2.184 6.44-5.124l-1.316-1.008h-.056c-.532 2.52-1.988 4.648-5.096 4.648-3.528 0-5.544-2.8-5.544-6.468 0-3.752 1.96-7 5.516-7 2.52 0 4.032 1.68 4.872 3.92h.056l1.204-1.092c-.756-1.96-2.772-4.228-6.104-4.228zm14.101 0c-3.22 0-4.928 2.044-4.928 4.088 0 2.212 1.372 3.472 5.124 4.396 3.976.98 4.62 2.044 4.62 3.64 0 1.316-1.176 2.744-3.752 2.744-2.604 0-4.312-1.456-5.572-3.556h-.056l-1.008 1.316c.98 1.876 3.556 3.724 6.664 3.724 3.024 0 5.292-1.736 5.292-4.228 0-2.408-1.372-3.864-5.348-4.872-3.724-.952-4.424-1.876-4.424-3.164 0-1.12.868-2.688 3.388-2.688 2.352 0 3.78 1.316 4.788 3.024h.056l.952-1.26c-.812-1.4-2.716-3.164-5.796-3.164z" fill="#6B7077"/><defs><clipPath id="clip0_402_45773"><path fill="#fff" d="M0 0h147v29H0z"/></clipPath></defs></svg>