<svg xmlns="http://www.w3.org/2000/svg" viewBox="0 0 32 32"><path d="M23.45 22.68l-6.44 4.06 1.81 2.83 6.86-4.32-2.23-2.57zm-2.7-5.35c.75-.38 1.42-.85 2.02-1.43 1.75-1.69 2.63-3.94 2.63-6.73s-.88-5.03-2.63-6.73S18.58-.1 15.44-.1H3.14v29.9h7.6V18.45h2.62c.29.7 1.89 4.58 2.75 6.46l6.28-3.96c-.9-1.62-1.45-3.07-1.64-3.62zm-3.43-5.95c-.54.56-1.34.83-2.39.83h-4.19V6.15h4.19c1.05 0 1.85.28 2.39.83.54.56.81 1.29.81 2.2s-.27 1.64-.81 2.2zM27.33 26.5L20.38 31l2.44.95 4.24-.01 3.07-2.19-.62-2.23-2.18-1.02z" fill="#dc5726"/></svg>